<?xml version="1.0" encoding="utf-8"?>
<svg version="1.1" id="Layer_1" xmlns="http://www.w3.org/2000/svg" xmlns:xlink="http://www.w3.org/1999/xlink" x="0px" y="0px"
	 viewBox="0 0 30 30" enable-background="new 0 0 30 30" xml:space="preserve">
<g>
	<g id="apple_button" transform="translate(0.000000, 1.000000)">
		<path id="Shape" fill="#FFFFFF" d="M18.3887729,6.71082067 C17.3092093,5.42588004 15.7943219,4.68246859 14.3650458,4.68246859 C12.4734691,4.68246859 11.6742668,5.54035058 10.36189,5.54035058 C9.00935603,5.54035058 7.981036,4.68388036 6.34493794,4.68388036 C4.7381571,4.68388036 3.02950507,5.61587996 1.94624605,7.20870281 C0.421996887,9.44964303 0.68030871,13.6652883 3.15170123,17.2577574 C4.03565241,18.5419921 5.2162249,19.9865797 6.7596904,20 C8.13144074,20.0118738 8.51995552,19.1638742 10.3813527,19.1539918 C12.2427499,19.1442271 12.5946798,20.0090503 13.9667997,19.9970503 C15.5098956,19.982815 16.7553848,18.3837569 17.6389665,17.0988162 C18.2724894,16.1789343 18.5078895,15.7142286 19,14.6729349 C15.426748,13.3836414 14.8521059,8.56140812 18.3887729,6.71082067 Z M12.9302265,3.24693979 C13.6172103,2.40470486 14.1392539,1.21564654 13.9496774,0 C12.8271235,0.0741176155 11.5142539,0.756117325 10.7476948,1.64494048 C10.0520883,2.45199896 9.4775693,3.64870433 9.70114392,4.81223324 C10.9263081,4.84835088 12.1944628,4.14929235 12.9302265,3.24693979 Z" />
	</g>
</g>
</svg>
