<?xml version="1.0" encoding="utf-8"?>
<!-- Generator: Adobe Illustrator 18.1.1, SVG Export Plug-In . SVG Version: 6.00 Build 0)  -->
<svg version="1.1" xmlns="http://www.w3.org/2000/svg" xmlns:xlink="http://www.w3.org/1999/xlink" x="0px" y="0px"
	 viewBox="0 0 30 30" enable-background="new 0 0 30 30" xml:space="preserve">
<g id="Layer_3">
</g>
<g id="Layer_2">
	<g>
		<polygon fill="#FFFFFF" points="25.7,13.5 25.7,10 23.9,10 23.9,13.5 20.4,13.5 20.4,15.2 23.9,15.2 23.9,18.7 25.7,18.7 
			25.7,15.2 29.2,15.2 29.2,13.5 		"/>
		<path fill="#FFFFFF" d="M17.7,16.9l-1.3-1c-0.4-0.3-0.9-0.7-0.9-1.5c0-0.8,0.5-1.2,1-1.7c1.5-1.2,3-2.4,3-5c0-2.7-1.6-3.9-2.4-4.6
			h2.1l2.3-1.4h-7.4c-1.9,0-4.5,0.2-6.5,1.8c-1.5,1.3-2,3.2-2,4.8c0,2.7,2.1,5.5,5.9,5.5c0.3,0,0.7-0.1,1.1-0.1
			c-0.2,0.5-0.4,0.8-0.4,1.4c0,1.1,0.6,1.8,1.1,2.4c-1.6,0.1-4.6,0.3-6.8,1.6c-2.1,1.3-2.7,3-2.7,4.3c0,2.6,2.4,5,7.5,5
			c6.1,0,9.4-3.3,9.4-6.6C20.7,19.4,19.3,18.2,17.7,16.9z M13.1,12.9c-3,0-4.4-3.9-4.4-6.2c0-0.9,0.1-2,0.7-2.7
			C10,3.3,11,2.9,11.9,2.9c3,0,4.5,3.9,4.5,6.4c0,0.7-0.1,1.7-0.9,2.5C14.9,12.4,14,12.9,13.1,12.9z M13.1,26.9
			c-3.8,0-6.2-1.8-6.2-4.3s2.2-3.3,3-3.6c1.5-0.5,3.4-0.6,3.7-0.5c0.3,0,0.5,0,0.8,0c2.7,1.9,3.9,2.8,3.9,4.6
			C18.3,25.3,16.5,26.9,13.1,26.9z"/>
	</g>
</g>
</svg>
