<?xml version="1.0" standalone="no"?>
<!DOCTYPE svg PUBLIC "-//W3C//DTD SVG 20010904//EN"
 "http://www.w3.org/TR/2001/REC-SVG-20010904/DTD/svg10.dtd">
<svg version="1.0" xmlns="http://www.w3.org/2000/svg"
 width="558.000000pt" height="558.000000pt" viewBox="0 0 558.000000 558.000000"
 preserveAspectRatio="xMidYMid meet">
<metadata>
Created by potrace 1.11, written by Peter Selinger 2001-2013
</metadata>
<g transform="translate(0.000000,558.000000) scale(0.100000,-0.100000)"
fill="#000000" stroke="none">
<path d="M2740 4263 c-25 -14 -47 -28 -50 -32 -3 -3 -18 -13 -35 -21 -16 -8
-32 -18 -35 -21 -3 -3 -31 -21 -64 -40 -32 -19 -72 -42 -90 -53 -17 -10 -32
-22 -34 -27 -2 -5 -9 -9 -16 -9 -6 0 -34 -15 -62 -32 -50 -33 -73 -46 -116
-70 -13 -7 -25 -15 -28 -18 -3 -3 -50 -32 -105 -65 -55 -33 -102 -62 -105 -65
-3 -4 -20 -13 -37 -21 -18 -8 -33 -17 -33 -21 0 -5 -6 -8 -14 -8 -27 0 -29
-29 -28 -390 0 -257 5 -411 17 -535 13 -128 30 -250 35 -250 1 0 3 -9 4 -20 5
-42 29 -108 75 -205 58 -123 194 -289 316 -385 21 -16 44 -36 51 -43 7 -6 14
-12 16 -12 3 0 42 -25 88 -55 46 -30 90 -55 97 -55 7 0 13 -4 13 -10 0 -5 6
-10 13 -10 7 0 28 -8 48 -19 19 -10 56 -26 82 -35 47 -16 49 -15 105 9 31 14
68 31 82 38 84 44 136 73 140 77 3 3 25 18 50 34 58 38 134 99 187 152 23 23
45 39 48 36 3 -3 5 -1 5 5 0 5 16 27 35 49 20 21 48 57 63 79 15 22 30 42 35
43 4 2 7 8 7 13 0 5 11 26 23 47 13 20 32 58 42 85 10 26 21 47 26 47 4 0 6 9
4 20 -2 11 0 20 6 20 5 0 8 3 7 8 -1 4 3 30 10 57 14 61 20 96 27 155 3 25 7
61 10 80 7 51 14 156 20 309 3 73 8 137 11 142 3 5 1 9 -5 9 -6 0 -8 6 -6 13
7 17 11 157 5 157 -3 0 -5 23 -5 50 0 28 4 50 8 50 5 0 5 5 2 10 -10 17 -13
120 -3 126 5 3 4 12 -2 19 -6 7 -10 17 -9 21 7 39 -5 54 -72 95 -80 49 -132
80 -169 101 -14 8 -62 38 -108 66 -46 29 -88 52 -93 52 -5 0 -9 5 -9 10 0 6
-7 10 -15 10 -8 0 -15 3 -15 8 0 4 -18 16 -40 26 -22 11 -40 23 -40 28 0 4 -3
7 -7 6 -9 -3 -81 39 -101 59 -7 7 -20 13 -28 13 -8 0 -14 4 -14 8 0 4 -12 13
-27 20 -16 6 -48 25 -73 41 -25 17 -52 34 -60 40 -11 6 -28 2 -60 -16z"/>
</g>
</svg>
